<?xml version="1.0" encoding="UTF-8" standalone="no"?>
<!-- Created with Inkscape (http://www.inkscape.org/) -->

<svg
   xmlns:dc="http://purl.org/dc/elements/1.1/"
   xmlns:cc="http://creativecommons.org/ns#"
   xmlns:rdf="http://www.w3.org/1999/02/22-rdf-syntax-ns#"
   xmlns:svg="http://www.w3.org/2000/svg"
   xmlns="http://www.w3.org/2000/svg"
   xmlns:sodipodi="http://sodipodi.sourceforge.net/DTD/sodipodi-0.dtd"
   xmlns:inkscape="http://www.inkscape.org/namespaces/inkscape"
   width="125.36124mm"
   height="119.8483mm"
   viewBox="0 0 125.36125 119.84831"
   version="1.1"
   id="svg1172"
   inkscape:version="0.92.5 (2060ec1f9f, 2020-04-08)"
   sodipodi:docname="Foggy.svg">
  <defs
     id="defs1166" />
  <sodipodi:namedview
     id="base"
     pagecolor="#ffffff"
     bordercolor="#666666"
     borderopacity="1.0"
     inkscape:pageopacity="0.0"
     inkscape:pageshadow="2"
     inkscape:zoom="0.35"
     inkscape:cx="956.86531"
     inkscape:cy="-145.15207"
     inkscape:document-units="mm"
     inkscape:current-layer="layer1"
     showgrid="false"
     fit-margin-top="5"
     fit-margin-left="5"
     fit-margin-right="5"
     fit-margin-bottom="5"
     inkscape:window-width="1920"
     inkscape:window-height="1012"
     inkscape:window-x="0"
     inkscape:window-y="38"
     inkscape:window-maximized="1" />
  <metadata
     id="metadata1169">
    <rdf:RDF>
      <cc:Work
         rdf:about="">
        <dc:format>image/svg+xml</dc:format>
        <dc:type
           rdf:resource="http://purl.org/dc/dcmitype/StillImage" />
        <dc:title></dc:title>
      </cc:Work>
    </rdf:RDF>
  </metadata>
  <g
     inkscape:label="Calque 1"
     inkscape:groupmode="layer"
     id="layer1"
     transform="translate(-186.02771,-105.54013)">
    <g
       transform="matrix(0.26458333,0,0,0.26458333,-48.947918,-438.2538)"
       id="g1044"
       style="fill:#FFFFFF">
      <path
         inkscape:connector-curvature="0"
         id="path132"
         d="m 1245.5796,2354.0908 h -10.584 v 0 L 1004.7168,2354 C 966.2749,2354 935,2322.6387 935,2284.0898 c 0,-33.2763 22.98633,-61.0937 54.27881,-68.1679 -0.50879,-2.7989 -0.76416,-5.6563 -0.76416,-8.5586 0,-26.2529 21.35795,-47.6104 47.61085,-47.6104 8.7202,0 17.0781,2.3262 24.3691,6.6866 19.9825,-26.4248 50.814,-41.9014 84.461,-41.9014 52.5849,0 96.9096,38.7285 104.7783,89.7666 36.4019,2.4482 65.2661,32.834 65.2661,69.833 0,38.1963 -31.0962,69.5771 -69.3184,69.9521 -0.034,10e-4 -0.068,10e-4 -0.102,10e-4 z m -10.5762,-20.0039 h 10.5318 c 27.2797,-0.2949 49.4648,-22.6933 49.4648,-49.9531 0,-27.5654 -22.4375,-49.9922 -50.0166,-49.9922 -1.1851,0 -2.4419,0.076 -3.5156,0.1504 -2.6514,0.1934 -5.2735,-0.6963 -7.2769,-2.4492 -2.0029,-1.752 -3.2251,-4.2305 -3.3955,-6.8858 -2.8926,-45.0966 -40.5981,-80.4228 -85.8398,-80.4228 -30.3384,0 -57.8574,15.5098 -73.6138,41.4892 -1.5947,2.6299 -4.3115,4.3799 -7.3657,4.7442 -3.0537,0.3603 -6.1065,-0.6973 -8.2749,-2.8779 -5.2207,-5.25 -12.1729,-8.1407 -19.5757,-8.1407 -15.2246,0 -27.6108,12.3858 -27.6108,27.6104 0,4.3447 0.9858,8.5078 2.9297,12.374 1.5273,3.0371 1.4067,6.6426 -0.3199,9.5713 -1.7265,2.9277 -4.8227,4.7793 -8.2197,4.9131 -26.86232,1.0644 -47.9048,22.9697 -47.9048,49.872 0,27.5206 22.30273,49.9102 49.7168,49.9102 H 1015 Z"
         style="fill:#FFFFFF" />
      <path
         inkscape:connector-curvature="0"
         id="path134"
         d="m 1222.625,2439 c 0,0 0,0 -0.01,0 l -56.375,-0.024 c -5.5225,0 -9.9966,-4.4715 -9.9932,-9.9949 0,-5.5205 4.4805,-9.9812 10,-9.9812 0,0 0,0 0.01,0 l 56.375,0.032 c 5.5225,0 9.9966,4.4676 9.9932,9.991 0,5.5205 -4.4805,9.9773 -10,9.9773 z"
         style="fill:#FFFFFF" />
      <path
         inkscape:connector-curvature="0"
         id="path136"
         d="m 1127.25,2439 c 0,0 0,0 0,0 l -99.416,-0.024 c -5.5225,0 -9.9981,-4.4685 -9.9961,-9.992 0,-5.5214 4.479,-9.9841 10,-9.9841 0,0 0,0 0,0 l 99.416,0.032 c 5.5225,0 9.9981,4.4646 9.9961,9.9881 0,5.5215 -4.479,9.9802 -10,9.9802 z"
         style="fill:#FFFFFF" />
      <path
         inkscape:connector-curvature="0"
         id="path138"
         d="m 1245.875,2397 c -10e-4,0 0,0 0,0 l -129.5411,-0.024 c -5.5229,0 -9.9985,-4.4685 -9.997,-9.991 0,-5.5215 4.4785,-9.9851 10,-9.9851 10e-4,0 0,0 0,0 l 129.541,0.032 c 5.523,0 9.9986,4.4646 9.9971,9.9871 0,5.5215 -4.4785,9.9812 -10,9.9812 z"
         style="fill:#FFFFFF" />
      <path
         inkscape:connector-curvature="0"
         id="path140"
         d="m 1078.875,2397 c 0,0 0,0 -0.01,0 l -71.541,-0.024 c -5.5225,0 -9.99755,-4.4705 -9.99462,-9.9929 0.003,-5.5215 4.48002,-9.9832 10.00002,-9.9832 0,0 0,0 0.01,0 l 71.5411,0.032 c 5.5224,0 9.9975,4.4666 9.9946,9.989 0,5.5215 -4.48,9.9793 -10,9.9793 z"
         style="fill:#FFFFFF" />
    </g>
  </g>
</svg>
