<?xml version="1.0" encoding="UTF-8" standalone="no"?>
<!-- Created with Inkscape (http://www.inkscape.org/) -->

<svg
   xmlns:dc="http://purl.org/dc/elements/1.1/"
   xmlns:cc="http://creativecommons.org/ns#"
   xmlns:rdf="http://www.w3.org/1999/02/22-rdf-syntax-ns#"
   xmlns:svg="http://www.w3.org/2000/svg"
   xmlns="http://www.w3.org/2000/svg"
   xmlns:sodipodi="http://sodipodi.sourceforge.net/DTD/sodipodi-0.dtd"
   xmlns:inkscape="http://www.inkscape.org/namespaces/inkscape"
   width="125.36124mm"
   height="119.8483mm"
   viewBox="0 0 125.36125 119.84831"
   version="1.1"
   id="svg1172"
   inkscape:version="0.92.5 (2060ec1f9f, 2020-04-08)"
   sodipodi:docname="Rain.svg">
  <defs
     id="defs1166" />
  <sodipodi:namedview
     id="base"
     pagecolor="#ffffff"
     bordercolor="#666666"
     borderopacity="1.0"
     inkscape:pageopacity="0.0"
     inkscape:pageshadow="2"
     inkscape:zoom="0.35"
     inkscape:cx="956.86531"
     inkscape:cy="-145.15207"
     inkscape:document-units="mm"
     inkscape:current-layer="layer1"
     showgrid="false"
     fit-margin-top="5"
     fit-margin-left="5"
     fit-margin-right="5"
     fit-margin-bottom="5"
     inkscape:window-width="1920"
     inkscape:window-height="1012"
     inkscape:window-x="0"
     inkscape:window-y="38"
     inkscape:window-maximized="1" />
  <metadata
     id="metadata1169">
    <rdf:RDF>
      <cc:Work
         rdf:about="">
        <dc:format>image/svg+xml</dc:format>
        <dc:type
           rdf:resource="http://purl.org/dc/dcmitype/StillImage" />
        <dc:title></dc:title>
      </cc:Work>
    </rdf:RDF>
  </metadata>
  <g
     inkscape:label="Calque 1"
     inkscape:groupmode="layer"
     id="layer1"
     transform="translate(-186.02771,-105.54013)">
    <g
       transform="matrix(0.26458333,0,0,0.26458333,-48.947918,-285.05243)"
       id="g1073"
       style="fill:#FFFFFF">
      <path
         inkscape:connector-curvature="0"
         id="path144"
         d="m 1245.5796,1764.0908 h -10.584 v 0 L 1004.7168,1764 C 966.2749,1764 935,1732.6387 935,1694.0894 c 0,-33.2764 22.98633,-61.0938 54.27881,-68.168 -0.5083,-2.7988 -0.76416,-5.6553 -0.76416,-8.5576 0,-26.253 21.35795,-47.6114 47.61085,-47.6114 8.7207,0 17.0776,2.3262 24.3691,6.6871 19.9825,-26.4248 50.814,-41.9014 84.461,-41.9014 52.5849,0 96.9096,38.7285 104.7783,89.7661 36.4019,2.4482 65.2661,32.834 65.2661,69.8335 0,38.1963 -31.0962,69.5771 -69.3184,69.9521 -0.034,10e-4 -0.068,10e-4 -0.102,10e-4 z m -10.5762,-20.0039 h 10.5318 c 27.2797,-0.2949 49.4648,-22.6933 49.4648,-49.9531 0,-27.5659 -22.4375,-49.9927 -50.0166,-49.9927 -1.1787,0 -2.4385,0.077 -3.5156,0.1514 -2.6514,0.1865 -5.2735,-0.6968 -7.2769,-2.4492 -2.0029,-1.7525 -3.2251,-4.231 -3.3955,-6.8867 -2.8926,-45.0967 -40.5981,-80.4224 -85.8398,-80.4224 -30.3384,0 -57.8574,15.5102 -73.6138,41.4893 -1.5947,2.6298 -4.3115,4.3793 -7.3657,4.7441 -3.0552,0.3599 -6.106,-0.6968 -8.2749,-2.8779 -5.2212,-5.25 -12.1734,-8.1411 -19.5757,-8.1411 -15.2246,0 -27.6108,12.3862 -27.6108,27.6113 0,4.3437 0.9858,8.5068 2.9301,12.374 1.5269,3.0371 1.4063,6.6421 -0.3203,9.5708 -1.7265,2.9282 -4.8227,4.7788 -8.2197,4.9131 C 976.04248,1645.2822 955,1667.187 955,1694.0894 955,1721.6104 977.30273,1744 1004.7168,1744 H 1015 Z"
         style="fill:#FFFFFF" />
      <path
         inkscape:connector-curvature="0"
         id="path146"
         d="m 1089.958,1870.9395 c -2.561,0 -5.1216,-0.9776 -7.0747,-2.9327 -3.9033,-3.9072 -3.8999,-10.2392 0.01,-14.1416 l 25.042,-25.0166 c 3.9077,-3.9033 10.2393,-3.9004 14.1421,0.01 3.9033,3.9072 3.8999,10.2392 -0.01,14.1416 l -25.042,25.0166 c -1.9522,1.9502 -4.5103,2.9258 -7.0674,2.9258 z"
         style="fill:#FFFFFF" />
      <path
         inkscape:connector-curvature="0"
         id="path148"
         d="m 1002.958,1813.9395 c -2.561,0 -5.12157,-0.9776 -7.0747,-2.9327 -3.90332,-3.9072 -3.8999,-10.2382 0.007,-14.1416 l 15.792,-15.7763 c 3.9072,-3.9034 10.2388,-3.9004 14.1421,0.01 3.9033,3.9072 3.8999,10.2383 -0.01,14.1416 l -15.792,15.7764 c -1.9522,1.9502 -4.5098,2.9258 -7.0674,2.9258 z"
         style="fill:#FFFFFF" />
      <path
         inkscape:connector-curvature="0"
         id="path150"
         d="m 1141.958,1813.9395 c -2.561,0 -5.1216,-0.9776 -7.0747,-2.9327 -3.9033,-3.9072 -3.8999,-10.2382 0.01,-14.1416 l 15.792,-15.7763 c 3.9072,-3.9034 10.2388,-3.9004 14.1421,0.01 3.9033,3.9072 3.8999,10.2383 -0.01,14.1416 l -15.792,15.7764 c -1.9522,1.9502 -4.5098,2.9258 -7.0674,2.9258 z"
         style="fill:#FFFFFF" />
      <path
         inkscape:connector-curvature="0"
         id="path152"
         d="m 1186.958,1839.1025 c -2.5615,0 -5.1225,-0.9775 -7.0757,-2.9335 -3.9028,-3.9073 -3.8984,-10.2393 0.01,-14.1416 l 40.9922,-40.9395 c 3.9077,-3.9033 10.2393,-3.8994 14.1421,0.01 3.9028,3.9072 3.8984,10.2393 -0.01,14.1416 l -40.9922,40.9394 c -1.9521,1.9502 -4.5093,2.9248 -7.0664,2.9248 z"
         style="fill:#FFFFFF" />
      <path
         inkscape:connector-curvature="0"
         id="path154"
         d="m 1035.958,1850.1025 c -2.561,0 -5.1216,-0.9775 -7.0747,-2.9326 -3.9033,-3.9072 -3.8999,-10.2383 0.01,-14.1416 l 51.9922,-51.9394 c 3.9072,-3.9033 10.2388,-3.9004 14.1421,0.01 3.9033,3.9072 3.8999,10.2383 -0.01,14.1416 l -51.9922,51.9395 c -1.9522,1.9502 -4.5103,2.9257 -7.0674,2.9257 z"
         style="fill:#FFFFFF" />
    </g>
  </g>
</svg>
