<?xml version="1.0" encoding="UTF-8" standalone="no"?>
<!-- Created with Inkscape (http://www.inkscape.org/) -->

<svg
   xmlns:dc="http://purl.org/dc/elements/1.1/"
   xmlns:cc="http://creativecommons.org/ns#"
   xmlns:rdf="http://www.w3.org/1999/02/22-rdf-syntax-ns#"
   xmlns:svg="http://www.w3.org/2000/svg"
   xmlns="http://www.w3.org/2000/svg"
   xmlns:sodipodi="http://sodipodi.sourceforge.net/DTD/sodipodi-0.dtd"
   xmlns:inkscape="http://www.inkscape.org/namespaces/inkscape"
   width="125.36124mm"
   height="119.8483mm"
   viewBox="0 0 125.36125 119.84831"
   version="1.1"
   id="svg1172"
   inkscape:version="0.92.5 (2060ec1f9f, 2020-04-08)"
   sodipodi:docname="Tempete.svg">
  <defs
     id="defs1166" />
  <sodipodi:namedview
     id="base"
     pagecolor="#ffffff"
     bordercolor="#666666"
     borderopacity="1.0"
     inkscape:pageopacity="0.0"
     inkscape:pageshadow="2"
     inkscape:zoom="0.7"
     inkscape:cx="486.80103"
     inkscape:cy="150.97437"
     inkscape:document-units="mm"
     inkscape:current-layer="layer1"
     showgrid="false"
     fit-margin-top="5"
     fit-margin-left="5"
     fit-margin-right="5"
     fit-margin-bottom="5"
     inkscape:window-width="1920"
     inkscape:window-height="1012"
     inkscape:window-x="0"
     inkscape:window-y="38"
     inkscape:window-maximized="1" />
  <metadata
     id="metadata1169">
    <rdf:RDF>
      <cc:Work
         rdf:about="">
        <dc:format>image/svg+xml</dc:format>
        <dc:type
           rdf:resource="http://purl.org/dc/dcmitype/StillImage" />
        <dc:title></dc:title>
      </cc:Work>
    </rdf:RDF>
  </metadata>
  <g
     inkscape:label="Calque 1"
     inkscape:groupmode="layer"
     id="layer1"
     transform="translate(-186.02771,-105.54013)">
    <g
       transform="matrix(0.26458333,0,0,0.26458333,-486.33165,-442.90676)"
       id="g1024"
       style="fill:#FFFFFF">
      <path
         inkscape:connector-curvature="0"
         id="path100"
         d="M 2959.708,2341 H 2642 c -5.5225,0 -10,-4.4775 -10,-10 0,-5.5225 4.4775,-10 10,-10 h 317.708 c 8.8906,0 16.4014,-7.6084 16.4014,-16.6143 0,-9.1611 -7.2324,-16.6142 -16.1231,-16.6142 -8.8134,0 -15.9844,7.4004 -15.9844,16.4961 0,5.5224 -4.4775,10 -10,10 -5.5224,0 -10,-4.4776 -10,-10 0,-20.124 16.1426,-36.4961 35.9844,-36.4961 19.918,0 36.1231,16.4248 36.1231,36.6142 0,20.1895 -16.3291,36.6143 -36.4014,36.6143 z"
         style="fill:#FFFFFF" />
      <path
         inkscape:connector-curvature="0"
         id="path102"
         d="m 2885.6055,2453.5732 c -12.1475,0 -23.502,-4.7246 -31.9707,-13.3027 -8.4141,-8.5234 -13.0479,-19.9033 -13.0479,-32.043 0,-5.5224 4.4776,-10 10,-10 5.5225,0 10,4.4776 10,10 0,14.2129 10.9893,25.3457 25.0186,25.3457 14.1543,0 25.2422,-11.1074 25.2422,-25.2861 0,-13.9433 -11.5235,-25.2871 -25.6875,-25.2871 H 2617 c -5.5225,0 -10,-4.4775 -10,-10 0,-5.5225 4.4775,-10 10,-10 h 268.1602 c 25.1923,0 45.6875,20.3154 45.6875,45.2871 0,24.9707 -20.2959,45.2861 -45.2422,45.2861 z"
         style="fill:#FFFFFF" />
      <path
         inkscape:connector-curvature="0"
         id="path104"
         d="M 2776.1602,2304 H 2668 c -5.5225,0 -10,-4.4775 -10,-10 0,-5.5225 4.4775,-10 10,-10 h 108.1602 c 14.164,0 25.6875,-11.415 25.6875,-25.4463 0,-14.0312 -11.3233,-25.4473 -25.2422,-25.4473 -14.0293,0 -25.0186,11.1807 -25.0186,25.4532 0,5.5224 -4.4775,10 -10,10 -5.5224,0 -10,-4.4776 -10,-10 0,-25.0625 20.1953,-45.4532 45.0186,-45.4532 24.9463,0 45.2422,20.3877 45.2422,45.4473 0,25.0596 -20.4952,45.4463 -45.6875,45.4463 z"
         style="fill:#FFFFFF" />
      <path
         inkscape:connector-curvature="0"
         id="path106"
         d="m 2718.958,2506.9394 c -2.5615,0 -5.1221,-0.9775 -7.0742,-2.9326 -3.9033,-3.9072 -3.9004,-10.2392 0.01,-14.1416 l 25.042,-25.0166 c 3.9072,-3.9033 10.2403,-3.9004 14.1416,0.01 3.9033,3.9072 3.9004,10.2392 -0.01,14.1416 l -25.042,25.0166 c -1.9522,1.9502 -4.5098,2.9257 -7.0674,2.9257 z"
         style="fill:#FFFFFF" />
      <path
         inkscape:connector-curvature="0"
         id="path108"
         d="m 2631.958,2449.9394 c -2.5615,0 -5.1211,-0.9775 -7.0742,-2.9326 -3.9033,-3.9072 -3.9004,-10.2383 0.01,-14.1416 l 15.792,-15.7763 c 3.9072,-3.9034 10.2383,-3.9004 14.1416,0.01 3.9033,3.9072 3.9004,10.2383 -0.01,14.1416 l -15.792,15.7764 c -1.9522,1.9502 -4.5098,2.9257 -7.0674,2.9257 z"
         style="fill:#FFFFFF" />
      <path
         inkscape:connector-curvature="0"
         id="path110"
         d="m 2770.958,2449.9394 c -2.5615,0 -5.1211,-0.9775 -7.0742,-2.9326 -3.9033,-3.9072 -3.9004,-10.2383 0.01,-14.1416 l 15.792,-15.7763 c 3.9072,-3.9034 10.2383,-3.9004 14.1416,0.01 3.9033,3.9072 3.9004,10.2383 -0.01,14.1416 l -15.792,15.7764 c -1.9522,1.9502 -4.5098,2.9257 -7.0674,2.9257 z"
         style="fill:#FFFFFF" />
      <path
         inkscape:connector-curvature="0"
         id="path112"
         d="m 2813.958,2488.1025 c -2.5635,0 -5.1269,-0.9795 -7.081,-2.9384 -3.8994,-3.9112 -3.8907,-10.2422 0.019,-14.1426 l 18.9922,-18.9395 c 3.9111,-3.8994 10.2412,-3.8916 14.1426,0.02 3.8994,3.9111 3.8906,10.2422 -0.02,14.1425 l -18.9922,18.9395 c -1.9521,1.9463 -4.5068,2.9189 -7.0615,2.9189 z"
         style="fill:#FFFFFF" />
      <path
         inkscape:connector-curvature="0"
         id="path114"
         d="m 2664.958,2486.1025 c -2.5615,0 -5.1221,-0.9775 -7.0742,-2.9326 -3.9033,-3.9072 -3.9004,-10.2383 0.01,-14.1416 l 51.9922,-51.9394 c 3.9072,-3.9033 10.2402,-3.9004 14.1416,0.01 3.9033,3.9072 3.9004,10.2383 -0.01,14.1416 l -51.9922,51.9395 c -1.9522,1.9501 -4.5098,2.9257 -7.0674,2.9257 z"
         style="fill:#FFFFFF" />
      <path
         inkscape:connector-curvature="0"
         id="path116"
         d="M 2846.7754,2305 H 2837 c -5.5225,0 -10,-4.4775 -10,-10 0,-5.5225 4.4775,-10 10,-10 h 9.6025 c 25.17,-0.9121 44.8623,-20.8115 44.8623,-45.3701 0,-24.9864 -20.2959,-45.3135 -45.2422,-45.3135 -1.2832,0 -2.2939,0.028 -3.1806,0.09 -2.6699,0.1875 -5.2744,-0.6972 -7.2764,-2.4492 -2.0029,-1.7519 -3.2246,-4.2304 -3.3955,-6.8857 -2.6367,-41.1055 -36.9941,-73.3037 -78.2178,-73.3037 -27.6484,0 -52.7246,14.1289 -67.0791,37.7939 -1.5947,2.6299 -4.3115,4.3799 -7.3652,4.7442 -3.0449,0.3623 -6.1055,-0.6963 -8.2744,-2.878 -4.6602,-4.6845 -10.8584,-7.2646 -17.4551,-7.2646 -13.5742,0 -24.6181,11.0429 -24.6181,24.6162 0,3.8711 0.8789,7.583 2.6123,11.0322 1.5273,3.0381 1.4062,6.6426 -0.3204,9.5703 -1.7275,2.9287 -4.8232,4.7793 -8.2197,4.9131 -24.2969,0.959 -43.3301,20.8106 -43.3301,45.1934 0,24.8564 20.2012,45.2119 45.0323,45.375 h 8.6298 c 5.5225,0 9.9971,4.4824 9.9942,10.0058 0,5.5205 -4.4795,9.9942 -10,9.9942 0,0 0,0 -0.01,0 h -8.6904 c -35.8457,-0.2364 -64.96,-29.5635 -64.96,-65.375 0,-30.7901 21.0616,-56.5694 49.8448,-63.4365 -0.3907,-2.3838 -0.5869,-4.8106 -0.5869,-7.2725 0,-24.6016 20.0156,-44.6162 44.6181,-44.6162 7.9287,0 15.5381,2.0537 22.2266,5.9121 18.5508,-24.1719 46.9599,-38.3076 77.9472,-38.3076 48.5967,0 89.5918,35.6572 97.1387,82.7441 33.6143,2.5986 60.1738,30.8125 60.1738,65.1182 0,35.4599 -28.2695,64.1719 -64.3593,65.3642 -0.1094,0 -0.2198,0.01 -0.3301,0.01 z"
         style="fill:#FFFFFF" />
    </g>
  </g>
</svg>
