<?xml version="1.0" encoding="UTF-8" standalone="no"?>
<!-- Created with Inkscape (http://www.inkscape.org/) -->

<svg
   xmlns:dc="http://purl.org/dc/elements/1.1/"
   xmlns:cc="http://creativecommons.org/ns#"
   xmlns:rdf="http://www.w3.org/1999/02/22-rdf-syntax-ns#"
   xmlns:svg="http://www.w3.org/2000/svg"
   xmlns="http://www.w3.org/2000/svg"
   xmlns:sodipodi="http://sodipodi.sourceforge.net/DTD/sodipodi-0.dtd"
   xmlns:inkscape="http://www.inkscape.org/namespaces/inkscape"
   width="125.36124mm"
   height="119.8483mm"
   viewBox="0 0 125.36125 119.84831"
   version="1.1"
   id="svg1172"
   inkscape:version="0.92.5 (2060ec1f9f, 2020-04-08)"
   sodipodi:docname="Thunderstorm.svg">
  <defs
     id="defs1166" />
  <sodipodi:namedview
     id="base"
     pagecolor="#ffffff"
     bordercolor="#666666"
     borderopacity="1.0"
     inkscape:pageopacity="0.0"
     inkscape:pageshadow="2"
     inkscape:zoom="0.35"
     inkscape:cx="956.86531"
     inkscape:cy="-145.15207"
     inkscape:document-units="mm"
     inkscape:current-layer="layer1"
     showgrid="false"
     fit-margin-top="5"
     fit-margin-left="5"
     fit-margin-right="5"
     fit-margin-bottom="5"
     inkscape:window-width="1920"
     inkscape:window-height="1012"
     inkscape:window-x="0"
     inkscape:window-y="38"
     inkscape:window-maximized="1" />
  <metadata
     id="metadata1169">
    <rdf:RDF>
      <cc:Work
         rdf:about="">
        <dc:format>image/svg+xml</dc:format>
        <dc:type
           rdf:resource="http://purl.org/dc/dcmitype/StillImage" />
        <dc:title></dc:title>
      </cc:Work>
    </rdf:RDF>
  </metadata>
  <g
     inkscape:label="Calque 1"
     inkscape:groupmode="layer"
     id="layer1"
     transform="translate(-186.02771,-105.54013)">
    <g
       transform="matrix(0.26458333,0,0,0.26458333,91.281247,-285.05243)"
       id="g1065"
       style="fill:#FFFFFF">
      <path
         inkscape:connector-curvature="0"
         id="path120"
         d="m 715.57959,1764.0908 h -10.58398 c -5.52246,0 -9.99805,-4.4805 -9.99609,-10.0039 0.002,-5.5215 4.479,-9.9961 10,-9.9961 0.001,0 0.002,0 0.004,0 h 10.53174 C 742.81494,1743.7959 765,1721.3975 765,1694.1377 c 0,-27.5659 -22.4375,-49.9927 -50.0166,-49.9927 -1.17871,0 -2.43848,0.077 -3.51562,0.1514 -2.65332,0.1865 -5.27393,-0.6968 -7.27686,-2.4492 -2.00293,-1.7525 -3.2251,-4.231 -3.39551,-6.8867 -2.89258,-45.0967 -40.59814,-80.4224 -85.83984,-80.4224 -30.33838,0 -57.85742,15.5102 -73.61377,41.4893 -1.59473,2.6298 -4.31152,4.3793 -7.36572,4.7441 -3.05273,0.3599 -6.10596,-0.6968 -8.2749,-2.8779 -5.22119,-5.25 -12.17334,-8.1411 -19.57568,-8.1411 -15.22461,0 -27.61084,12.3862 -27.61084,27.6113 0,4.3437 0.98584,8.5068 2.93018,12.374 1.52686,3.0371 1.40625,6.6421 -0.32031,9.5708 -1.72656,2.9282 -4.82275,4.7788 -8.21973,4.9131 C 446.04248,1645.2822 425,1667.187 425,1694.0894 425,1721.6104 447.30273,1744 474.7168,1744 H 485 c 5.52295,0 10,4.4775 10,10 0,5.5225 -4.47705,10 -10,10 H 474.7168 C 436.2749,1764 405,1732.6387 405,1694.0894 c 0,-33.2764 22.98633,-61.0938 54.27881,-68.168 -0.5083,-2.7988 -0.76416,-5.6553 -0.76416,-8.5576 0,-26.253 21.35791,-47.6114 47.61084,-47.6114 8.7207,0 17.07764,2.3262 24.36914,6.6871 19.98242,-26.4248 50.81396,-41.9014 84.46094,-41.9014 52.58496,0 96.90967,38.7285 104.77832,89.7661 36.40185,2.4482 65.26611,32.834 65.26611,69.8335 0,38.1963 -31.09619,69.5772 -69.31836,69.9522 -0.0337,9e-4 -0.0679,9e-4 -0.10205,9e-4 z"
         style="fill:#FFFFFF" />
      <path
         inkscape:connector-curvature="0"
         id="path122"
         d="m 501.0332,1858.085 c -2.55713,0 -5.11377,-0.9746 -7.06592,-2.9239 -3.9082,-3.9023 -3.9126,-10.2344 -0.0103,-14.1425 L 536.91504,1798 H 511.0332 c -4.0918,0 -7.77051,-2.4922 -9.2876,-6.293 -1.5166,-3.7998 -0.56543,-8.1406 2.40137,-10.958 l 63,-59.8291 c 4.00488,-3.8027 10.33398,-3.6416 14.13721,0.3653 3.80322,4.0039 3.64014,10.3339 -0.36475,14.1367 L 536.08496,1778 h 24.94824 c 4.04346,0 7.68896,2.4346 9.2373,6.1699 1.54883,3.7354 0.6958,8.0352 -2.16113,10.8965 l -60,60.085 c -1.95312,1.9551 -4.51464,2.9336 -7.07617,2.9336 z"
         style="fill:#FFFFFF" />
      <path
         inkscape:connector-curvature="0"
         id="path124"
         d="m 602.95801,1822.9395 c -2.56104,0 -5.12158,-0.9776 -7.07471,-2.9327 -3.90332,-3.9072 -3.8999,-10.2382 0.007,-14.1416 L 638.79883,1763 h -25.84082 c -4.0874,0 -7.76318,-2.4873 -9.28271,-6.2812 -1.52002,-3.794 -0.57812,-8.1319 2.37891,-10.9532 l 63,-60.1211 c 3.99561,-3.8125 10.3252,-3.6655 14.13818,0.3306 3.81299,3.9956 3.66504,10.3252 -0.33057,14.1382 L 637.92139,1743 h 25.03662 c 4.04541,0 7.69238,2.4375 9.23975,6.1758 1.54736,3.7373 0.68994,8.04 -2.17236,10.8984 l -60,59.9395 c -1.95216,1.9502 -4.50978,2.9258 -7.06739,2.9258 z"
         style="fill:#FFFFFF" />
      <path
         inkscape:connector-curvature="0"
         id="path126"
         d="m 551.95801,1870.9395 c -2.56104,0 -5.12158,-0.9776 -7.07471,-2.9327 -3.90332,-3.9072 -3.8999,-10.2392 0.007,-14.1416 l 25.04199,-25.0166 c 3.90723,-3.9033 10.23877,-3.9004 14.14209,0.01 3.90332,3.9072 3.8999,10.2392 -0.007,14.1416 l -25.04199,25.0166 c -1.95215,1.9502 -4.51025,2.9258 -7.06738,2.9258 z"
         style="fill:#FFFFFF" />
      <path
         inkscape:connector-curvature="0"
         id="path128"
         d="m 460.95801,1837.9395 c -2.56104,0 -5.12158,-0.9776 -7.07471,-2.9327 -3.90332,-3.9072 -3.8999,-10.2382 0.007,-14.1416 l 15.79199,-15.7763 c 3.90723,-3.9024 10.23877,-3.8994 14.14209,0.01 3.90332,3.9072 3.8999,10.2383 -0.007,14.1416 l -15.79199,15.7764 c -1.95215,1.9502 -4.50977,2.9258 -7.06738,2.9258 z"
         style="fill:#FFFFFF" />
      <path
         inkscape:connector-curvature="0"
         id="path130"
         d="m 639.95801,1851.9395 c -2.56104,0 -5.12158,-0.9776 -7.07471,-2.9327 -3.90332,-3.9072 -3.8999,-10.2382 0.007,-14.1416 l 51.99219,-51.9394 c 3.90723,-3.9033 10.23877,-3.9004 14.14209,0.01 3.90332,3.9073 3.8999,10.2383 -0.007,14.1416 l -51.99219,51.9395 c -1.95215,1.9502 -4.51025,2.9258 -7.06738,2.9258 z"
         style="fill:#FFFFFF" />
    </g>
  </g>
</svg>
